<svg data-v-fde0c5aa="" xmlns="http://www.w3.org/2000/svg" viewBox="0 0 300 300" class="iconAbove"><!----><defs data-v-fde0c5aa=""><!----></defs><rect data-v-fde0c5aa="" fill="#231B6E" x="0" y="0" width="300px" height="300px" class="logo-background-square"></rect><defs data-v-fde0c5aa=""><!----></defs><g data-v-fde0c5aa="" id="d345e08d-1eee-4858-b993-623fb73c80f6" fill="#ffffff" transform="matrix(1.8237935216934689,0,0,1.8237935216934689,19.799382713700783,168.501964480655)"><path d="M11.58 1.98L11.58 1.98L10.89 1.83L10.89 1.35L12.36 1.38L13.75 1.35L13.75 1.83L12.96 1.98L12.96 1.98Q12.18 4.10 11.49 6.37L11.49 6.37L10.23 10.78L8.67 10.78L6.85 3.54L6.85 3.54Q6.61 4.56 6.54 4.89L6.54 4.89L6.54 4.89Q6.28 6.01 5.97 7.16L5.97 7.16L5.97 7.16Q5.75 7.99 5.53 8.97L5.53 8.97L5.53 8.97Q5.35 9.76 5.11 10.78L5.11 10.78L3.54 10.78L3.54 10.78Q2.94 8.47 2.31 6.37L2.31 6.37L2.31 6.37Q2.04 5.45 1.67 4.22L1.67 4.22L1.67 4.22Q1.30 2.99 0.97 1.98L0.97 1.98L0.11 1.83L0.11 1.35L1.93 1.38L3.68 1.35L3.68 1.83L2.93 1.98L2.93 1.98Q3.16 2.97 3.34 3.71L3.34 3.71L3.34 3.71Q3.41 3.99 3.78 5.45L3.78 5.45L3.78 5.45Q4.23 7.26 4.72 8.92L4.72 8.92L4.72 8.92Q5.22 7.03 5.66 5.12L5.66 5.12L5.66 5.12Q5.89 4.22 6.10 3.24L6.10 3.24L6.10 3.24Q6.28 2.44 6.52 1.33L6.52 1.33L7.28 1.38L7.99 1.35L7.99 1.35Q8.19 2.29 8.39 3.22L8.39 3.22L8.39 3.22Q8.60 4.15 8.86 5.12L8.86 5.12L8.86 5.12Q9.13 6.10 9.38 7.05L9.38 7.05L9.38 7.05Q9.59 7.86 9.85 8.96L9.85 8.96L9.85 8.96Q10.21 7.51 10.40 6.80L10.40 6.80L10.40 6.80Q10.65 5.92 10.77 5.48L10.77 5.48L10.77 5.48Q11.00 4.67 11.21 3.73L11.21 3.73L11.21 3.73Q11.39 2.93 11.58 1.98ZM17.85 6.87L17.85 6.87L17.36 6.87L17.36 6.87Q16.72 6.87 16.19 7.02L16.19 7.02L16.19 7.02Q15.66 7.17 15.27 7.45L15.27 7.45L15.27 7.45Q14.52 7.91 14.52 8.69L14.52 8.69L14.52 8.69Q14.52 9.04 14.87 9.35L14.87 9.35L14.87 9.35Q15.22 9.65 15.79 9.65L15.79 9.65L15.79 9.65Q16.74 9.65 17.29 8.85L17.29 8.85L17.29 8.85Q17.85 8.04 17.85 6.87ZM18.02 9.04L18.02 9.04L18.02 9.04Q17.32 10.23 16.59 10.54L16.59 10.54L16.59 10.54Q15.85 10.85 15.08 10.85L15.08 10.85L15.08 10.85Q14.06 10.85 13.42 10.28L13.42 10.28L13.42 10.28Q12.78 9.70 12.78 8.89L12.78 8.89L12.78 8.89Q12.78 7.58 14.13 6.83L14.13 6.83L14.13 6.83Q15.47 6.09 17.85 6.09L17.85 6.09L17.85 5.35L17.85 5.35Q17.85 4.65 17.50 4.41L17.50 4.41L17.50 4.41Q17.15 4.17 16.35 4.17L16.35 4.17L16.35 4.17Q15.54 4.17 15.01 4.36L15.01 4.36L15.01 4.36Q14.71 4.47 14.52 4.55L14.52 4.55L14.52 4.55Q14.49 4.56 14.44 4.59L14.44 4.59L14.44 5.28L13.96 5.43L13.26 3.85L14.24 3.54L14.24 3.54Q15.20 3.22 16.68 3.22L16.68 3.22L16.68 3.22Q18.97 3.22 19.30 4.58L19.30 4.58L19.30 4.58Q19.62 5.93 19.62 9.58L19.62 9.58L19.62 9.81L20.35 10.18L20.35 10.68L19.35 10.66L18.93 10.65L18.15 10.69L18.15 10.69Q18.12 10.63 18.10 10.53L18.10 10.53L18.10 10.53Q18.07 10.43 18.07 10.21L18.07 10.21L18.07 10.21Q18.07 9.97 18.06 9.68L18.06 9.68L18.06 9.68Q18.05 9.39 18.02 9.04ZM27.58 8.40L27.58 8.40L27.58 8.40Q27.58 9.38 26.58 10.12L26.58 10.12L26.58 10.12Q25.57 10.85 24.15 10.85L24.15 10.85L24.15 10.85Q23.22 10.85 22.45 10.63L22.45 10.63L22.45 10.63Q21.69 10.41 20.98 9.98L20.98 9.98L20.98 9.98Q21.11 9.83 21.29 9.61L21.29 9.61L21.29 9.61Q21.46 9.39 21.59 9.21L21.59 9.21L21.59 9.21Q21.72 9.03 21.86 8.81L21.86 8.81L21.86 8.81Q21.96 8.65 22.09 8.40L22.09 8.40L22.53 8.63L22.36 9.31L22.36 9.31Q22.58 9.50 23.10 9.71L23.10 9.71L23.10 9.71Q23.60 9.89 24.38 9.89L24.38 9.89L24.38 9.89Q25.05 9.89 25.50 9.61L25.50 9.61L25.50 9.61Q25.95 9.33 25.95 8.81L25.95 8.81L25.95 8.81Q25.95 8.29 25.40 8.04L25.40 8.04L25.40 8.04Q25.14 7.92 24.76 7.79L24.76 7.79L24.76 7.79Q24.38 7.65 23.93 7.51L23.93 7.51L23.93 7.51Q22.97 7.27 22.23 6.81L22.23 6.81L22.23 6.81Q21.48 6.35 21.48 5.39L21.48 5.39L21.48 5.39Q21.48 4.47 22.45 3.84L22.45 3.84L22.45 3.84Q23.41 3.22 24.69 3.22L24.69 3.22L24.69 3.22Q25.41 3.22 26.14 3.35L26.14 3.35L26.14 3.35Q26.45 3.41 26.72 3.47L26.72 3.47L26.72 3.47Q26.99 3.54 27.23 3.62L27.23 3.62L26.64 5.23L26.15 5.15L26.15 4.58L26.15 4.58Q25.86 4.41 25.34 4.25L25.34 4.25L25.34 4.25Q24.83 4.09 24.39 4.09L24.39 4.09L24.39 4.09Q23.72 4.09 23.38 4.36L23.38 4.36L23.38 4.36Q23.03 4.61 23.03 5.05L23.03 5.05L23.03 5.05Q23.03 5.39 23.44 5.67L23.44 5.67L23.44 5.67Q23.84 5.93 24.85 6.17L24.85 6.17L24.85 6.17Q26.38 6.51 26.98 7.04L26.98 7.04L26.98 7.04Q27.58 7.57 27.58 8.40ZM34.82 5.43L34.82 7.94L34.82 7.94Q34.82 8.35 34.83 8.72L34.83 8.72L34.83 8.72Q34.84 9.08 34.89 9.53L34.89 9.53L34.89 9.53Q34.93 9.98 34.96 10.04L34.96 10.04L35.71 10.20L35.71 10.68L34.01 10.64L33.19 10.68L33.19 10.20L33.18 10.04L33.18 6.43L33.18 6.43Q33.18 5.40 32.87 4.90L32.87 4.90L32.87 4.90Q32.60 4.40 31.85 4.40L31.85 4.40L31.85 4.40Q31.10 4.40 30.63 5.04L30.63 5.04L30.63 5.04Q30.22 5.67 30.22 6.73L30.22 6.73L30.22 7.94L30.22 7.94Q30.22 8.42 30.23 8.75L30.23 8.75L30.23 8.75Q30.24 9.08 30.29 9.39L30.29 9.39L30.36 10.04L31.11 10.20L31.11 10.68L29.41 10.64L27.69 10.68L27.69 10.20L28.44 10.04L28.51 9.39L28.51 9.39Q28.54 9.09 28.56 8.70L28.56 8.70L28.56 8.70Q28.58 8.32 28.58 7.94L28.58 7.94L28.58 3.42L28.58 3.22L28.58 3.05L28.58 2.91L28.58 2.91Q28.58 2.36 28.54 1.99L28.54 1.99L28.54 1.99Q28.54 1.73 28.51 1.53L28.51 1.53L28.51 1.53Q28.49 1.32 28.45 1.22L28.45 1.22L27.57 1.05L27.57 0.56L29.73 0.20L30.35 0.20L30.24 1.25L30.22 2.12L30.22 4.48L30.22 4.48Q30.75 3.84 31.37 3.53L31.37 3.53L31.37 3.53Q31.99 3.22 32.69 3.22L32.69 3.22L32.69 3.22Q33.66 3.22 34.24 3.82L34.24 3.82L34.24 3.82Q34.82 4.43 34.82 5.43L34.82 5.43ZM43.25 7.03L43.25 7.03L43.25 7.03Q43.25 8.75 42.18 9.79L42.18 9.79L42.18 9.79Q41.11 10.84 39.33 10.84L39.33 10.84L39.33 10.84Q37.58 10.84 36.51 9.79L36.51 9.79L36.51 9.79Q35.43 8.75 35.43 7.03L35.43 7.03L35.43 7.03Q35.43 5.33 36.51 4.27L36.51 4.27L36.51 4.27Q37.59 3.22 39.33 3.22L39.33 3.22L39.33 3.22Q41.11 3.22 42.18 4.27L42.18 4.27L42.18 4.27Q43.25 5.31 43.25 7.03ZM41.51 7.03L41.51 7.03L41.51 7.03Q41.51 5.71 40.92 4.90L40.92 4.90L40.92 4.90Q40.33 4.09 39.33 4.09L39.33 4.09L39.33 4.09Q38.34 4.09 37.76 4.89L37.76 4.89L37.76 4.89Q37.17 5.70 37.17 7.03L37.17 7.03L37.17 7.03Q37.17 8.33 37.76 9.15L37.76 9.15L37.76 9.15Q38.35 9.97 39.33 9.97L39.33 9.97L39.33 9.97Q40.31 9.97 40.91 9.17L40.91 9.17L40.91 9.17Q41.51 8.36 41.51 7.03ZM50.73 8.42L51.26 8.92L51.26 8.92Q51.01 9.28 50.67 9.60L50.67 9.60L50.67 9.60Q50.34 9.93 49.86 10.23L49.86 10.23L49.86 10.23Q48.92 10.84 47.86 10.84L47.86 10.84L47.86 10.84Q46.15 10.84 45.17 9.85L45.17 9.85L45.17 9.85Q44.19 8.86 44.19 7.11L44.19 7.11L44.19 7.11Q44.19 5.50 45.35 4.36L45.35 4.36L45.35 4.36Q46.50 3.22 48.14 3.22L48.14 3.22L48.14 3.22Q49.48 3.22 50.31 4.02L50.31 4.02L50.31 4.02Q51.14 4.83 51.14 6.08L51.14 6.08L51.14 6.49L46.03 6.49L46.03 6.49Q46.03 8.03 46.58 8.84L46.58 8.84L46.58 8.84Q47.14 9.65 48.33 9.65L48.33 9.65L48.33 9.65Q49.15 9.65 49.79 9.21L49.79 9.21L49.79 9.21Q50.42 8.77 50.73 8.42L50.73 8.42ZM46.07 5.79L46.07 5.79L49.38 5.64L49.38 5.48L49.38 5.48Q49.38 4.77 49.04 4.38L49.04 4.38L49.04 4.38Q48.71 4.00 48.03 4.00L48.03 4.00L48.03 4.00Q47.14 4.00 46.56 4.67L46.56 4.67L46.56 4.67Q46.23 5.10 46.07 5.79ZM67.19 1.98L67.19 1.98L66.50 1.83L66.50 1.35L67.96 1.38L69.36 1.35L69.36 1.83L68.57 1.98L68.57 1.98Q67.78 4.10 67.09 6.37L67.09 6.37L65.84 10.78L64.28 10.78L62.46 3.54L62.46 3.54Q62.22 4.56 62.15 4.89L62.15 4.89L62.15 4.89Q61.89 6.01 61.58 7.16L61.58 7.16L61.58 7.16Q61.36 7.99 61.14 8.97L61.14 8.97L61.14 8.97Q60.96 9.76 60.72 10.78L60.72 10.78L59.15 10.78L59.15 10.78Q58.55 8.47 57.92 6.37L57.92 6.37L57.92 6.37Q57.64 5.45 57.27 4.22L57.27 4.22L57.27 4.22Q56.91 2.99 56.57 1.98L56.57 1.98L55.71 1.83L55.71 1.35L57.54 1.38L59.29 1.35L59.29 1.83L58.54 1.98L58.54 1.98Q58.76 2.97 58.94 3.71L58.94 3.71L58.94 3.71Q59.01 3.99 59.38 5.45L59.38 5.45L59.38 5.45Q59.84 7.26 60.33 8.92L60.33 8.92L60.33 8.92Q60.83 7.03 61.27 5.12L61.27 5.12L61.27 5.12Q61.49 4.22 61.71 3.24L61.71 3.24L61.71 3.24Q61.89 2.44 62.12 1.33L62.12 1.33L62.89 1.38L63.60 1.35L63.60 1.35Q63.79 2.29 64.00 3.22L64.00 3.22L64.00 3.22Q64.21 4.15 64.47 5.12L64.47 5.12L64.47 5.12Q64.73 6.10 64.98 7.05L64.98 7.05L64.98 7.05Q65.20 7.86 65.46 8.96L65.46 8.96L65.46 8.96Q65.82 7.51 66.01 6.80L66.01 6.80L66.01 6.80Q66.26 5.92 66.38 5.48L66.38 5.48L66.38 5.48Q66.60 4.67 66.82 3.73L66.82 3.73L66.82 3.73Q67.00 2.93 67.19 1.98ZM75.06 8.42L75.59 8.92L75.59 8.92Q75.34 9.28 75.00 9.60L75.00 9.60L75.00 9.60Q74.67 9.93 74.19 10.23L74.19 10.23L74.19 10.23Q73.25 10.84 72.19 10.84L72.19 10.84L72.19 10.84Q70.48 10.84 69.50 9.85L69.50 9.85L69.50 9.85Q68.52 8.86 68.52 7.11L68.52 7.11L68.52 7.11Q68.52 5.50 69.68 4.36L69.68 4.36L69.68 4.36Q70.83 3.22 72.47 3.22L72.47 3.22L72.47 3.22Q73.81 3.22 74.64 4.02L74.64 4.02L74.64 4.02Q75.47 4.83 75.47 6.08L75.47 6.08L75.47 6.49L70.36 6.49L70.36 6.49Q70.36 8.03 70.91 8.84L70.91 8.84L70.91 8.84Q71.47 9.65 72.66 9.65L72.66 9.65L72.66 9.65Q73.48 9.65 74.12 9.21L74.12 9.21L74.12 9.21Q74.75 8.77 75.06 8.42L75.06 8.42ZM70.41 5.79L70.41 5.79L73.71 5.64L73.71 5.48L73.71 5.48Q73.71 4.77 73.37 4.38L73.37 4.38L73.37 4.38Q73.04 4.00 72.36 4.00L72.36 4.00L72.36 4.00Q71.47 4.00 70.89 4.67L70.89 4.67L70.89 4.67Q70.56 5.10 70.41 5.79ZM77.91 2.12L77.91 4.24L77.91 4.24Q78.40 3.68 78.96 3.45L78.96 3.45L78.96 3.45Q79.52 3.22 80.09 3.22L80.09 3.22L80.09 3.22Q81.44 3.22 82.24 4.22L82.24 4.22L82.24 4.22Q83.03 5.23 83.03 6.87L83.03 6.87L83.03 6.87Q83.03 8.57 81.89 9.70L81.89 9.70L81.89 9.70Q80.75 10.84 79.04 10.84L79.04 10.84L79.04 10.84Q78.79 10.84 78.52 10.82L78.52 10.82L78.52 10.82Q78.25 10.81 77.96 10.77L77.96 10.77L77.96 10.77Q77.67 10.72 77.39 10.68L77.39 10.68L77.39 10.68Q77.10 10.64 76.90 10.64L76.90 10.64L76.71 10.64L75.77 10.68L76.15 10.04L76.15 10.04Q76.17 9.98 76.20 9.78L76.20 9.78L76.20 9.78Q76.22 9.57 76.22 9.45L76.22 9.45L76.28 8.16L76.28 3.42L76.28 3.22L76.28 3.05L76.28 2.91L76.28 2.91Q76.28 2.67 76.27 2.43L76.27 2.43L76.27 2.43Q76.26 2.19 76.22 1.99L76.22 1.99L76.15 1.22L75.27 1.05L75.27 0.56L77.42 0.20L78.04 0.20L77.94 1.25L77.91 2.12ZM77.91 6.29L77.91 6.29L77.91 9.50L77.91 9.50Q77.91 9.62 78.39 9.81L78.39 9.81L78.39 9.81Q78.64 9.89 78.89 9.93L78.89 9.93L78.89 9.93Q79.15 9.97 79.41 9.97L79.41 9.97L79.41 9.97Q80.20 9.97 80.74 9.15L80.74 9.15L80.74 9.15Q81.28 8.33 81.28 7.15L81.28 7.15L81.28 7.15Q81.28 6.49 81.16 6.03L81.16 6.03L81.16 6.03Q81.03 5.56 80.75 5.16L80.75 5.16L80.75 5.16Q80.22 4.40 79.32 4.40L79.32 4.40L79.32 4.40Q78.61 4.40 78.26 4.88L78.26 4.88L78.26 4.88Q77.91 5.36 77.91 6.29ZM95.63 7.76L95.63 7.76L95.63 7.76Q95.63 9.13 94.43 10.00L94.43 10.00L94.43 10.00Q93.23 10.87 91.41 10.87L91.41 10.87L91.41 10.87Q90.34 10.87 89.37 10.65L89.37 10.65L89.37 10.65Q88.90 10.56 88.49 10.40L88.49 10.40L88.49 10.40Q88.07 10.23 87.66 9.98L87.66 9.98L87.66 9.98Q87.78 9.73 87.91 9.48L87.91 9.48L87.91 9.48Q88.00 9.28 88.13 8.96L88.13 8.96L88.13 8.96Q88.34 8.46 88.49 7.92L88.49 7.92L89.02 8.05L88.97 8.96L88.97 8.96Q89.36 9.21 90.17 9.53L90.17 9.53L90.17 9.53Q90.98 9.84 91.89 9.84L91.89 9.84L91.89 9.84Q92.67 9.84 93.25 9.41L93.25 9.41L93.25 9.41Q93.79 8.96 93.79 8.33L93.79 8.33L93.79 8.33Q93.79 7.59 93.11 7.20L93.11 7.20L93.11 7.20Q92.42 6.80 91.34 6.54L91.34 6.54L91.34 6.54Q89.55 6.09 88.78 5.50L88.78 5.50L88.78 5.50Q88.00 4.92 88.00 3.96L88.00 3.96L88.00 3.96Q88.00 2.73 89.13 1.95L89.13 1.95L89.13 1.95Q90.26 1.17 91.97 1.17L91.97 1.17L91.97 1.17Q92.96 1.17 93.78 1.33L93.78 1.33L93.78 1.33Q94.60 1.50 95.31 1.74L95.31 1.74L95.31 1.74Q95.21 1.94 95.11 2.18L95.11 2.18L95.11 2.18Q95.01 2.42 94.89 2.74L94.89 2.74L94.57 3.73L94.08 3.60L94.13 2.88L94.13 2.88Q93.89 2.69 93.20 2.43L93.20 2.43L93.20 2.43Q92.88 2.32 92.49 2.25L92.49 2.25L92.49 2.25Q92.10 2.18 91.72 2.18L91.72 2.18L91.72 2.18Q90.83 2.18 90.29 2.51L90.29 2.51L90.29 2.51Q89.75 2.85 89.75 3.46L89.75 3.46L89.75 3.46Q89.75 4.12 90.45 4.44L90.45 4.44L90.45 4.44Q91.14 4.75 92.22 5.02L92.22 5.02L92.22 5.02Q94.18 5.48 94.90 6.12L94.90 6.12L94.90 6.12Q95.63 6.77 95.63 7.76ZM103.16 8.42L103.68 8.92L103.68 8.92Q103.43 9.28 103.10 9.60L103.10 9.60L103.10 9.60Q102.77 9.93 102.29 10.23L102.29 10.23L102.29 10.23Q101.35 10.84 100.29 10.84L100.29 10.84L100.29 10.84Q98.57 10.84 97.59 9.85L97.59 9.85L97.59 9.85Q96.62 8.86 96.62 7.11L96.62 7.11L96.62 7.11Q96.62 5.50 97.77 4.36L97.77 4.36L97.77 4.36Q98.93 3.22 100.56 3.22L100.56 3.22L100.56 3.22Q101.91 3.22 102.74 4.02L102.74 4.02L102.74 4.02Q103.56 4.83 103.56 6.08L103.56 6.08L103.56 6.49L98.45 6.49L98.45 6.49Q98.45 8.03 99.01 8.84L99.01 8.84L99.01 8.84Q99.56 9.65 100.75 9.65L100.75 9.65L100.75 9.65Q101.57 9.65 102.21 9.21L102.21 9.21L102.21 9.21Q102.85 8.77 103.16 8.42L103.16 8.42ZM98.50 5.79L98.50 5.79L101.80 5.64L101.80 5.48L101.80 5.48Q101.80 4.77 101.47 4.38L101.47 4.38L101.47 4.38Q101.13 4.00 100.45 4.00L100.45 4.00L100.45 4.00Q99.56 4.00 98.99 4.67L98.99 4.67L98.99 4.67Q98.66 5.10 98.50 5.79ZM106.09 7.08L106.09 7.94L106.09 7.94Q106.09 8.42 106.10 8.75L106.10 8.75L106.10 8.75Q106.11 9.08 106.17 9.54L106.17 9.54L106.17 9.54Q106.23 10.00 106.26 10.04L106.26 10.04L107.15 10.20L107.15 10.68L105.28 10.64L103.56 10.68L103.56 10.20L104.31 10.04L104.39 9.39L104.39 9.39Q104.41 9.09 104.43 8.70L104.43 8.70L104.43 8.70Q104.46 8.32 104.46 7.94L104.46 7.94L104.46 6.40L104.46 6.22L104.46 6.06L104.46 6.06Q104.46 5.81 104.45 5.55L104.45 5.55L104.45 5.55Q104.43 5.28 104.40 5.03L104.40 5.03L104.33 4.19L103.45 4.02L103.45 3.54L103.45 3.54Q103.73 3.54 103.97 3.50L103.97 3.50L103.97 3.50Q104.31 3.43 104.48 3.41L104.48 3.41L104.48 3.41Q104.83 3.35 105.02 3.31L105.02 3.31L105.02 3.31Q105.21 3.26 105.53 3.17L105.53 3.17L105.95 3.17L105.90 5.24L105.90 5.24Q106.23 4.24 106.94 3.72L106.94 3.72L106.94 3.72Q107.27 3.48 107.61 3.35L107.61 3.35L107.61 3.35Q107.95 3.22 108.31 3.22L108.31 3.22L108.31 3.22Q108.45 3.22 108.59 3.24L108.59 3.24L108.59 3.24Q108.72 3.26 108.88 3.31L108.88 3.31L108.88 3.31Q109.03 3.35 109.13 3.43L109.13 3.43L108.71 4.48L108.49 5.27L108.49 5.27Q108.01 5.16 108.00 5.05L108.00 5.05L108.00 5.05Q108.00 4.91 108.02 4.84L108.02 4.84L108.02 4.84Q108.02 4.55 107.93 4.52L107.93 4.52L107.93 4.52Q107.84 4.48 107.69 4.48L107.69 4.48L107.69 4.48Q107.04 4.48 106.57 5.23L106.57 5.23L106.57 5.23Q106.09 5.98 106.09 7.08L106.09 7.08ZM117.53 3.85L116.98 4.02L116.98 4.02Q116.67 4.75 116.30 5.73L116.30 5.73L116.30 5.73Q115.92 6.70 115.66 7.40L115.66 7.40L114.47 10.79L113.67 10.76L112.86 10.79L112.86 10.79Q112.27 9.01 111.69 7.39L111.69 7.39L111.69 7.39Q111.42 6.61 111.07 5.71L111.07 5.71L111.07 5.71Q110.78 4.94 110.39 4.00L110.39 4.00L109.76 3.86L109.76 3.38L111.37 3.42L112.99 3.38L112.99 3.85L112.25 4.00L114.00 9.75L114.86 6.87L115.66 4.00L115.00 3.86L115.00 3.38L116.27 3.42L117.53 3.38L117.53 3.85ZM119.02 1.12L119.02 1.12L119.02 1.12Q119.02 0.73 119.30 0.44L119.30 0.44L119.30 0.44Q119.59 0.15 119.98 0.15L119.98 0.15L119.98 0.15Q120.38 0.15 120.66 0.44L120.66 0.44L120.66 0.44Q120.95 0.73 120.95 1.12L120.95 1.12L120.95 1.12Q120.95 1.53 120.66 1.81L120.66 1.81L120.66 1.81Q120.38 2.10 119.98 2.10L119.98 2.10L119.98 2.10Q119.59 2.10 119.30 1.81L119.30 1.81L119.30 1.81Q119.02 1.53 119.02 1.12ZM120.81 5.09L120.81 7.94L120.81 7.94Q120.81 8.35 120.82 8.72L120.82 8.72L120.82 8.72Q120.83 9.08 120.88 9.53L120.88 9.53L120.88 9.53Q120.92 9.98 120.95 10.04L120.95 10.04L121.70 10.20L121.70 10.68L119.98 10.64L118.27 10.68L118.27 10.20L119.02 10.04L119.09 9.39L119.09 9.39Q119.11 9.09 119.14 8.70L119.14 8.70L119.14 8.70Q119.16 8.32 119.16 7.94L119.16 7.94L119.16 6.41L119.16 6.21L119.16 6.03L119.16 5.89L119.16 5.89Q119.16 5.35 119.11 4.98L119.11 4.98L119.11 4.98Q119.11 4.72 119.09 4.52L119.09 4.52L119.09 4.52Q119.07 4.31 119.03 4.21L119.03 4.21L118.15 4.04L118.15 3.55L118.15 3.55Q118.47 3.51 118.74 3.49L118.74 3.49L118.74 3.49Q119.01 3.46 119.23 3.41L119.23 3.41L120.33 3.17L120.94 3.17L120.83 4.22L120.81 5.09ZM127.80 8.72L127.80 8.72L128.32 9.31L128.32 9.31Q127.88 9.85 127.07 10.38L127.07 10.38L127.07 10.38Q126.27 10.84 125.20 10.84L125.20 10.84L125.20 10.84Q123.52 10.84 122.49 9.90L122.49 9.90L122.49 9.90Q121.45 8.95 121.45 7.34L121.45 7.34L121.45 7.34Q121.45 5.58 122.72 4.40L122.72 4.40L122.72 4.40Q123.99 3.22 125.89 3.22L125.89 3.22L125.89 3.22Q126.64 3.22 127.25 3.38L127.25 3.38L127.25 3.38Q127.78 3.50 128.04 3.62L128.04 3.62L128.04 3.62Q127.99 3.74 127.89 4.02L127.89 4.02L127.89 4.02Q127.79 4.29 127.73 4.49L127.73 4.49L127.50 5.35L127.00 5.28L127.00 4.58L127.00 4.58Q126.98 4.54 126.83 4.46L126.83 4.46L126.83 4.46Q126.68 4.38 126.49 4.30L126.49 4.30L126.49 4.30Q126.02 4.09 125.51 4.09L125.51 4.09L125.51 4.09Q124.45 4.09 123.83 4.81L123.83 4.81L123.83 4.81Q123.20 5.53 123.20 6.73L123.20 6.73L123.20 6.73Q123.20 8.03 123.89 8.84L123.89 8.84L123.89 8.84Q124.58 9.65 125.73 9.65L125.73 9.65L125.73 9.65Q126.62 9.65 127.11 9.28L127.11 9.28L127.11 9.28Q127.25 9.17 127.53 8.95L127.53 8.95L127.53 8.95Q127.66 8.84 127.80 8.72ZM135.19 8.42L135.71 8.92L135.71 8.92Q135.46 9.28 135.13 9.60L135.13 9.60L135.13 9.60Q134.79 9.93 134.32 10.23L134.32 10.23L134.32 10.23Q133.38 10.84 132.31 10.84L132.31 10.84L132.31 10.84Q130.60 10.84 129.62 9.85L129.62 9.85L129.62 9.85Q128.65 8.86 128.65 7.11L128.65 7.11L128.65 7.11Q128.65 5.50 129.80 4.36L129.80 4.36L129.80 4.36Q130.96 3.22 132.59 3.22L132.59 3.22L132.59 3.22Q133.94 3.22 134.76 4.02L134.76 4.02L134.76 4.02Q135.59 4.83 135.59 6.08L135.59 6.08L135.59 6.49L130.48 6.49L130.48 6.49Q130.48 8.03 131.03 8.84L131.03 8.84L131.03 8.84Q131.59 9.65 132.78 9.65L132.78 9.65L132.78 9.65Q133.60 9.65 134.24 9.21L134.24 9.21L134.24 9.21Q134.88 8.77 135.19 8.42L135.19 8.42ZM130.53 5.79L130.53 5.79L133.83 5.64L133.83 5.48L133.83 5.48Q133.83 4.77 133.49 4.38L133.49 4.38L133.49 4.38Q133.16 4.00 132.48 4.00L132.48 4.00L132.48 4.00Q131.59 4.00 131.02 4.67L131.02 4.67L131.02 4.67Q130.68 5.10 130.53 5.79ZM142.67 8.40L142.67 8.40L142.67 8.40Q142.67 9.38 141.66 10.12L141.66 10.12L141.66 10.12Q140.66 10.85 139.24 10.85L139.24 10.85L139.24 10.85Q138.31 10.85 137.54 10.63L137.54 10.63L137.54 10.63Q136.77 10.41 136.07 9.98L136.07 9.98L136.07 9.98Q136.20 9.83 136.37 9.61L136.37 9.61L136.37 9.61Q136.54 9.39 136.68 9.21L136.68 9.21L136.68 9.21Q136.81 9.03 136.95 8.81L136.95 8.81L136.95 8.81Q137.05 8.65 137.18 8.40L137.18 8.40L137.62 8.63L137.45 9.31L137.45 9.31Q137.66 9.50 138.19 9.71L138.19 9.71L138.19 9.71Q138.69 9.89 139.46 9.89L139.46 9.89L139.46 9.89Q140.13 9.89 140.58 9.61L140.58 9.61L140.58 9.61Q141.04 9.33 141.04 8.81L141.04 8.81L141.04 8.81Q141.04 8.29 140.49 8.04L140.49 8.04L140.49 8.04Q140.23 7.92 139.85 7.79L139.85 7.79L139.85 7.79Q139.46 7.65 139.01 7.51L139.01 7.51L139.01 7.51Q138.06 7.27 137.31 6.81L137.31 6.81L137.31 6.81Q136.57 6.35 136.57 5.39L136.57 5.39L136.57 5.39Q136.57 4.47 137.53 3.84L137.53 3.84L137.53 3.84Q138.50 3.22 139.77 3.22L139.77 3.22L139.77 3.22Q140.50 3.22 141.23 3.35L141.23 3.35L141.23 3.35Q141.54 3.41 141.81 3.47L141.81 3.47L141.81 3.47Q142.07 3.54 142.31 3.62L142.31 3.62L141.73 5.23L141.24 5.15L141.24 4.58L141.24 4.58Q140.94 4.41 140.43 4.25L140.43 4.25L140.43 4.25Q139.92 4.09 139.48 4.09L139.48 4.09L139.48 4.09Q138.81 4.09 138.46 4.36L138.46 4.36L138.46 4.36Q138.12 4.61 138.12 5.05L138.12 5.05L138.12 5.05Q138.12 5.39 138.52 5.67L138.52 5.67L138.52 5.67Q138.93 5.93 139.94 6.17L139.94 6.17L139.94 6.17Q141.47 6.51 142.07 7.04L142.07 7.04L142.07 7.04Q142.67 7.57 142.67 8.40Z"></path></g><defs data-v-fde0c5aa=""><!----></defs><g data-v-fde0c5aa="" id="5df312bd-f19b-4858-bad5-49553dd418fb" stroke="none" fill="#1DC7DA" transform="matrix(1.278446036978801,0,0,1.278446036978801,92.08192210163517,73.51264551928739)"><path d="M36.358 53.494c5.741-3.636 10.257-1.86 11.165-5.007.839-2.907-2.219-6.212-2.219-6.212L33.346 30.318a1.599 1.599 0 0 0-2.262 0L.967 60.435h35.455s-5.806-3.305-.064-6.941z"></path><path d="M58.392 52.802c0 2.86-3.98 6.375 8.46 7.633H89.64L59.523 30.318a1.599 1.599 0 0 0-2.262 0L45.303 42.275s13.089 4.518 13.089 10.527zM48.558 50.534l-.096-.175c.786-.429.387-2.262.383-2.28l.195-.044c.019.081.436 1.998-.482 2.499z"></path><path d="M55.492 50.466l-.196-.038c.174-.893-1.46-2.28-1.477-2.294l.129-.153c.071.059 1.74 1.478 1.544 2.485zM40.501 57.24c-.807-.477-1.189-1.005-1.136-1.569.142-1.513 3.397-2.704 3.536-2.754l.068.188c-.033.012-3.274 1.197-3.405 2.584-.045.481.304.945 1.038 1.378l-.101.173zM48.144 57.221c-.671-.724-.963-1.466-.866-2.207.166-1.265 1.397-2.056 1.449-2.089l.107.169c-.012.008-1.205.775-1.358 1.947-.088.678.186 1.366.814 2.044l-.146.136zM54.617 57.244c-.781-.373-1.093-1.238-.9-2.5.142-.931.501-1.74.516-1.774l.182.082c-.014.032-1.407 3.202.289 4.012l-.087.18zM51.775 50.189l-.175-.096c.452-.829 0-1.988-.005-2l.186-.074c.02.052.491 1.257-.006 2.17z"></path><ellipse cx="48.917" cy="47.718" rx=".137" ry=".114"></ellipse><ellipse cx="51.551" cy="47.718" rx=".137" ry=".114"></ellipse><ellipse cx="53.678" cy="47.718" rx=".137" ry=".114"></ellipse></g><!----></svg>